<?xml version="1.0" encoding="utf-8"?>
<!-- Generator: Adobe Illustrator 16.0.0, SVG Export Plug-In . SVG Version: 6.00 Build 0)  -->
<!DOCTYPE svg PUBLIC "-//W3C//DTD SVG 1.1//EN" "http://www.w3.org/Graphics/SVG/1.1/DTD/svg11.dtd">
<svg version="1.1" id="Layer_1" xmlns="http://www.w3.org/2000/svg" xmlns:xlink="http://www.w3.org/1999/xlink" x="0px" y="0px"
	 width="1366px" height="312.031px" viewBox="0 156.804 1366 312.031" enable-background="new 0 156.804 1366 312.031"
	 xml:space="preserve">
<linearGradient id="SVGID_1_" gradientUnits="userSpaceOnUse" x1="-118.8113" y1="455.5371" x2="1747.0743" y2="292.9477" gradientTransform="matrix(1 0 0 -1 -8.3599 651.0547)">
	<stop  offset="0" style="stop-color:#800404"/>
	<stop  offset="0.53" style="stop-color:#E70000"/>
	<stop  offset="1" style="stop-color:#800404"/>
</linearGradient>
<path fill="url(#SVGID_1_)" d="M1599.93,150.223c-71.65,3.817-157.26,6.19-255.23,15.519
	c-142.54,13.537-309.449,42.418-479.536,84.661c-188.948,46.945-366.77,100.213-531.848,128.383
	c-144.233,24.559-272.843,23.751-353.252,10.7c-79.668-12.959-121.384-31.598-121.384-31.598
	c154.556,69.209,380.675,65.385,570.842,31.379c205.998-36.882,383.671-86.354,555.191-116.271
	c148.227-25.831,285.287-35.751,399.196-35.058c104.931,0.653,196.61,7.583,273.05,11.208c32.291,1.516,62.58,2.552,91,2.874
	C1699.13,217.232,1651.68,182.59,1599.93,150.223z"/>
<linearGradient id="SVGID_2_" gradientUnits="userSpaceOnUse" x1="-122.2751" y1="415.7305" x2="1866.6031" y2="242.4222" gradientTransform="matrix(1 0 0 -1 -8.3599 651.0547)">
	<stop  offset="0" style="stop-color:#C54E06"/>
	<stop  offset="0.54" style="stop-color:#FF9119"/>
	<stop  offset="1" style="stop-color:#BB4600"/>
</linearGradient>
<path fill="url(#SVGID_2_)" d="M1718.35,230.872c-93.05,2.147-209.42-8.129-352.21-6.384c-143.25,1.72-314.45,19.973-485.593,55.498
	c-194.379,40.375-375.027,90.964-542.501,115.64c-147.577,21.688-278.434,16.598-358.281,0.123
	c-80.765-16.694-121.08-37.858-121.08-37.858c144.142,73.797,363.82,80.884,550.89,52.976
	c203.285-30.378,381.288-76.261,555.607-100.89c149.938-21.157,291.208-24.385,406.647-16.38
	c108.96,7.573,202.71,21.582,282.721,29.474c79.43,7.789,149.779,10.6,210.46,7.904
	C1813.579,299.314,1766.5,265.253,1718.35,230.872z"/>
<linearGradient id="SVGID_3_" gradientUnits="userSpaceOnUse" x1="-126.1746" y1="370.9766" x2="2012.3459" y2="184.6291" gradientTransform="matrix(1 0 0 -1 -8.3599 651.0547)">
	<stop  offset="0" style="stop-color:#A29605"/>
	<stop  offset="0.525" style="stop-color:#F5E847"/>
	<stop  offset="1" style="stop-color:#A19605"/>
</linearGradient>
<path fill="url(#SVGID_3_)" d="M1842.42,315.534c-117.62,9.809-267.181-14.978-470.341-28.364
	c-142.26-9.401-317.439-2.218-488.822,26.324c-197.655,32.949-379.333,79.759-546.846,99.818
	c-149.258,17.813-280.483,7.584-358.568-12.413c-80.754-20.712-119.058-44.163-119.058-44.163
	c76.487,44.36,172.371,73.787,267.825,82.885c99.682,9.466,203.051,1.457,304.194-11.633
	c209.65-27.164,393.567-68.092,570.484-80.797c151.03-10.809,292.591,1.522,403.711,19.59
	c109.959,17.894,201.699,37.337,281.93,46.487c130.83,14.826,240.359,6.312,322.57-10.137
	C1948.26,378.998,1893.88,348.641,1842.42,315.534z"/>
<linearGradient id="SVGID_4_" gradientUnits="userSpaceOnUse" x1="-128.9475" y1="339.1533" x2="2129.9438" y2="142.318" gradientTransform="matrix(1 0 0 -1 -8.3599 651.0547)">
	<stop  offset="0" style="stop-color:#014E1F"/>
	<stop  offset="0.515" style="stop-color:#00AE44"/>
	<stop  offset="1" style="stop-color:#014E1F"/>
</linearGradient>
<path fill="url(#SVGID_4_)" d="M1956.35,379.943c-72.53,14.093-158.47,20.697-255.32,13.037
	c-95.67-7.586-203.029-31.123-337.229-48.086c-140.45-17.789-317.96-19.976-488.977,2.571
	c-198.418,26.2-379.588,68.827-545.174,83.983c-149.331,13.602-279.223-1.827-354.896-24.981
	c-79.792-24.452-115.969-49.729-115.969-49.729c72.704,46.044,165.715,74.71,256.494,90.749
	c95.253,12.631,196.558,8.113,295.475-2.065c205.686-21.201,388.52-58.642,564.873-66.687
	c151.772-6.885,294.202,11.373,404.492,34.951c111.48,23.847,203.07,48.69,285.17,61.387c203.87,31.344,364.53-3.74,462.36-35.938
	C2065.869,425.489,2008.14,404.74,1956.35,379.943z"/>
<linearGradient id="SVGID_5_" gradientUnits="userSpaceOnUse" x1="-143.5193" y1="328.5127" x2="2144.0286" y2="129.1798" gradientTransform="matrix(1 0 0 -1 -8.3599 651.0547)">
	<stop  offset="0" style="stop-color:#00798B"/>
	<stop  offset="0.525" style="stop-color:#00C1DE"/>
	<stop  offset="1" style="stop-color:#00798B"/>
</linearGradient>
<path fill="url(#SVGID_5_)" d="M2143.56,431.328c-31.101-5.743-61.37-13.163-90.101-21.993
	c-86.14,26.669-191.27,47.97-313.35,43.232c-116.689-4.572-245.17-40.095-416.29-69.708c-139.08-24.103-317.49-32.428-487.408-14.58
	c-196.288,20.656-374.571,58.145-535.122,67.549c-146.667,8.524-272.201-12.469-344.174-38.4
	c-77.129-27.824-110.793-54.244-110.793-54.244c67.782,48.762,151.766,84.966,241.259,101.852
	c89.108,16.781,187.215,17.065,282.655,10.772c199.072-13.164,379.144-46.005,553.036-49.717
	c151.527-3.194,293.567,19.518,402.487,47.314c112.01,28.6,202.529,57.836,285.229,73.62c203.12,38.573,372.95,3.846,476.98-30.297
	C2106.5,474.951,2125.03,453.148,2143.56,431.328z"/>
</svg>
